<svg width="380" height="340" viewBox="0 0 380 340" fill="none" xmlns="http://www.w3.org/2000/svg">
<rect width="380" height="340" fill="#290B7C"/>
<g clip-path="url(#clip0_3885_61014)">
<path d="M287.008 202.216L276.582 190.226L266.248 202.216H244.504L265.756 177.732L244.504 153.241H266.927L277.458 165.139L287.591 153.241H309.231L288.084 177.629L309.525 202.216H287.008ZM202.75 202.216V125.066H244.505V142.263H220.437V153.243H244.505V169.79H220.437V184.977H244.505V202.217H202.75V202.216Z" fill="#FF5A00"/>
<path d="M185.13 125.066V156.64H184.935C181.035 152.045 176.161 150.442 170.51 150.442C158.929 150.442 150.204 158.521 147.142 169.193C143.649 157.431 134.641 150.222 121.286 150.222C110.438 150.222 101.876 155.212 97.4032 163.348V153.24H74.9846V142.264H99.4521V125.07H55V202.216H74.9835V169.789H94.9017C94.2882 172.283 93.982 174.845 93.9887 177.417C93.9887 193.503 105.976 204.807 121.281 204.807C134.146 204.807 142.631 198.608 147.115 187.321H129.987C127.673 190.717 125.913 191.72 121.282 191.72C115.913 191.72 111.281 186.916 111.281 181.227H146.155C147.668 194.006 157.377 205.025 170.703 205.025C176.451 205.025 181.714 202.126 184.932 197.229H185.125V202.228H202.745V125.07H185.129V125.066H185.13ZM111.838 170.02C112.951 165.117 116.657 161.914 121.283 161.914C126.377 161.914 129.895 165.018 130.818 170.02H111.837H111.838ZM174.436 190.476C167.944 190.476 163.909 184.273 163.909 177.794C163.909 170.867 167.42 164.213 174.436 164.213C181.452 164.213 184.618 170.871 184.618 177.794C184.618 184.355 181.547 190.476 174.436 190.476Z" fill="white"/>
<path fill-rule="evenodd" clip-rule="evenodd" d="M329 195.967C329 199.482 326.279 202.217 322.749 202.217C319.219 202.217 316.5 199.482 316.5 195.967C316.5 192.451 319.221 189.717 322.749 189.717C326.278 189.717 329 192.458 329 195.967ZM317.47 195.967C317.47 198.958 319.722 201.326 322.749 201.326C325.776 201.326 328.021 198.958 328.021 195.967C328.021 192.975 325.767 190.606 322.749 190.606C319.731 190.606 317.47 192.973 317.47 195.967ZM321.37 199.584H320.48V192.356H323.252C324.889 192.356 325.599 193.059 325.599 194.357C325.599 195.654 324.767 196.207 323.797 196.373L325.944 199.584H324.897L322.868 196.373H321.371V199.584H321.37ZM322.545 195.615C323.638 195.615 324.713 195.583 324.713 194.356C324.713 193.347 323.874 193.113 323.006 193.113H321.371V195.614H322.546L322.545 195.615Z" fill="#FF5A00"/>
</g>
<defs>
<clipPath id="clip0_3885_61014">
<rect width="280" height="80" fill="white" transform="translate(55.5 125.107)"/>
</clipPath>
</defs>
</svg>
