<svg xmlns="http://www.w3.org/2000/svg" width="56" height="35" fill="none"><path fill="#FEFCFC" d="M55.923 1.86a3 3 0 0 0-.116-.347 3 3 0 0 0-.226-.42 2.46 2.46 0 0 0-.839-.778 2.43 2.43 0 0 0-3.111.618 2.49 2.49 0 0 0-.45 2.192 2.48 2.48 0 0 0 1.484 1.663c-.434 2.254-2.963 4.747-5.464 6.178q-.58.33-1.207.552c.516-1.552.796-3.173.83-4.81a2.46 2.46 0 0 0 1.299-1.08 2.5 2.5 0 0 0-.53-3.148 2.44 2.44 0 0 0-3.16-.004 2.5 2.5 0 0 0-.539 3.146c.291.505.75.888 1.295 1.084a14.4 14.4 0 0 1-1.07 5.177c-1.055 2.574-2.827 4.723-5.037 5.928l-.133.073c-1.075.586-1.627.887-2.6.972.041-.392.124-.848.267-1.567.04-.206.123-.567.221-.985.422-1.811.7-3.164.847-4.185.54-.206.99-.598 1.272-1.107a2.5 2.5 0 0 0-.594-3.131 2.436 2.436 0 0 0-3.155.054 2.5 2.5 0 0 0-.49 3.15c.3.498.763.875 1.309 1.063-.218 1.36-.607 3.032-.78 3.778-.105.45-.188.807-.233 1.039q-.215.977-.314 1.975c-1.181.144-2.099.563-2.791 1.27-1.29 1.317-1.468 3.315-1.475 5.368q-.002.562.006 1.124.006.466.006.924v4.77a.8.8 0 0 1-.026.203.75.75 0 0 1-.308.449l-.005.003-.002.001-.037.025-.026.014a1.5 1.5 0 0 1-.372.158 2 2 0 0 1-.356.067 6 6 0 0 1-.608.031h-.003V30.91a.2.2 0 0 1 .067-.155.2.2 0 0 1 .16-.052q.235.023.541.058a.16.16 0 0 0 .179-.144l.06-.544.06-.545.001-.017-.002-.032a.2.2 0 0 0-.061-.098.2.2 0 0 0-.083-.032c-.774-.08-1.21-.123-1.624-.124-.415 0-.85.043-1.624.123a.16.16 0 0 0-.122.077.2.2 0 0 0-.022.054.3.3 0 0 0 0 .049l.06.545.06.544a.16.16 0 0 0 .115.138.2.2 0 0 0 .063.006q.305-.035.542-.058a.2.2 0 0 1 .209.123.2.2 0 0 1 .017.084v2.436h-.003v.001a6 6 0 0 1-.626-.033 2 2 0 0 1-.338-.065 1.4 1.4 0 0 1-.398-.172l-.037-.025-.007-.004a.75.75 0 0 1-.327-.549 1 1 0 0 1-.007-.104v-4.769q0-.458.006-.925.008-.56.006-1.123c-.007-2.053-.186-4.051-1.475-5.368-.692-.707-1.61-1.126-2.79-1.27a17 17 0 0 0-.315-1.975c-.045-.232-.128-.587-.233-1.038-.173-.745-.562-2.42-.78-3.78a2.46 2.46 0 0 0 1.309-1.063 2.5 2.5 0 0 0-.49-3.151 2.44 2.44 0 0 0-3.155-.054 2.5 2.5 0 0 0-.594 3.132c.281.51.732.902 1.272 1.108.147 1.02.425 2.374.847 4.186.098.418.18.778.221.984.143.719.226 1.175.268 1.567-.974-.085-1.526-.386-2.6-.972l-.134-.073c-2.21-1.205-3.982-3.354-5.037-5.928a14.4 14.4 0 0 1-1.07-5.177 2.46 2.46 0 0 0 1.296-1.084 2.5 2.5 0 0 0-.539-3.147 2.44 2.44 0 0 0-3.161.005 2.5 2.5 0 0 0-.53 3.148c.293.504.753.886 1.3 1.08.033 1.637.313 3.258.83 4.81a7.5 7.5 0 0 1-1.208-.552c-2.501-1.431-5.03-3.924-5.464-6.178.359-.14.68-.363.938-.652a2.49 2.49 0 0 0 .58-2.161A2.5 2.5 0 0 0 4.37.933 2.43 2.43 0 0 0 1.258.314a2.46 2.46 0 0 0-1.065 1.2 2.5 2.5 0 0 0 .109 2.152A2.46 2.46 0 0 0 1.686 4.83c.43 2.965 3.468 5.948 6.306 7.572q.404.23.83.418a9 9 0 0 0 1.18.428q.386.112.78.19h.002q.046.097.095.194l.096.19c1.25 2.4 3.036 4.281 5.167 5.443l.132.072c1.197.654 1.978 1.08 3.39 1.176l-.01.224a119 119 0 0 0-.117 5.663v.81c0 1.631 1.595 2.724 2.879 3.602.39.268.76.522 1.048.76q.112.36.181.733.075.396.191.783c.057.194.151.375.277.533a5 5 0 0 0 .415.438 3.5 3.5 0 0 0 .794.561 2.5 2.5 0 0 0 .329.142q.293.105.601.157l.077.013.111.015q.104.014.212.023a6 6 0 0 0 .358.022q.284.01.583.008h.19l.154-.001h.124l.154.001c.267 0 .524.001.773-.008l.076-.004q.144-.005.282-.017a6 6 0 0 0 .4-.052 3.4 3.4 0 0 0 .93-.299q.088-.044.173-.094a3.5 3.5 0 0 0 .724-.567 5 5 0 0 0 .312-.338 1.6 1.6 0 0 0 .277-.533q.116-.388.19-.783.07-.372.182-.733a15 15 0 0 1 1.048-.76c1.284-.878 2.88-1.97 2.88-3.602v-.81a119 119 0 0 0-.128-5.887c1.412-.097 2.193-.522 3.391-1.176l.13-.072c2.132-1.162 3.918-3.043 5.167-5.444q.05-.094.097-.19.049-.096.095-.193h.001q.394-.077.781-.19a8.6 8.6 0 0 0 1.18-.428 9 9 0 0 0 .83-.418c2.838-1.624 5.876-4.607 6.306-7.572a2.46 2.46 0 0 0 1.386-1.164 2.5 2.5 0 0 0 .224-1.807M2.452 3.302a.81.81 0 0 1-.755-.51.83.83 0 0 1 .177-.9.815.815 0 0 1 1.395.584.83.83 0 0 1-.24.584.8.8 0 0 1-.577.242M9.99 5.197a.81.81 0 0 1-.755-.51.83.83 0 0 1 .177-.9.815.815 0 0 1 1.395.585.83.83 0 0 1-.24.583.8.8 0 0 1-.577.242m9.193 5.432a.8.8 0 0 1-.577-.242.83.83 0 0 1 0-1.166.813.813 0 0 1 1.155-.001.83.83 0 0 1 0 1.168.8.8 0 0 1-.578.241m2.688 10.115c.4.118.763.334 1.06.628.397.406.64.973.786 1.634q.04.18.072.369.046.283.075.584a2.24 2.24 0 0 1-1.758-.933 2.3 2.3 0 0 1-.263-.47 2.3 2.3 0 0 1 .028-1.812m2.056 5.94q-.006.474-.007.942v2.226a33 33 0 0 0-.586-.407c-.963-.66-2.162-1.48-2.162-2.235v-.81q0-.982.01-1.771.066.064.137.125.14.12.29.23.153.109.314.203.16.093.33.173a3.9 3.9 0 0 0 1.673.37h.008q0 .476-.007.954m8.285-3.309q.03-.189.07-.37c.147-.66.39-1.226.788-1.633.296-.294.66-.51 1.059-.628a2.3 2.3 0 0 1-.235 2.282q-.095.131-.207.246a2.23 2.23 0 0 1-1.55.687h-.001q.03-.3.075-.584m2.616 3.835c0 .755-1.2 1.576-2.162 2.235q-.303.207-.586.407v-2.226q-.001-.467-.007-.942a84 84 0 0 1-.008-.953h.009a3.96 3.96 0 0 0 2.466-.86 4 4 0 0 0 .279-.242q.01.79.01 1.772zm1.315-16.94a.83.83 0 0 1 .192-1.135.81.81 0 0 1 1.128.166.83.83 0 0 1 .011.992.82.82 0 0 1-.926.29.8.8 0 0 1-.405-.312m9.05-5.898a.83.83 0 0 1 .504-.763.81.81 0 0 1 .891.179.83.83 0 0 1 .177.9.82.82 0 0 1-.755.51.8.8 0 0 1-.578-.243.83.83 0 0 1-.24-.583m8.355-1.07a.81.81 0 0 1-.755-.509.83.83 0 0 1 .177-.9.815.815 0 0 1 .89-.179.82.82 0 0 1 .505.763.83.83 0 0 1-.24.584.8.8 0 0 1-.577.242"/><path fill="#FEFCFC" d="M34.662 16.417q-.062.271-.098.454l-.07.355-.026.136c-.048.256-.086.478-.12.677-4.021-.745-8.182-.735-12.674.028a27 27 0 0 0-.124-.705l-.021-.107q-.034-.18-.075-.383c-.022-.115-.055-.26-.091-.427 4.705-.804 9.07-.812 13.299-.028"/></svg>